<?xml version="1.0" encoding="UTF-8" standalone="no"?>
<!-- Created with Inkscape (http://www.inkscape.org/) -->

<svg
   width="210mm"
   height="297mm"
   viewBox="0 0 210 297"
   version="1.1"
   id="svg1"
   inkscape:version="1.3.2 (091e20e, 2023-11-25)"
   sodipodi:docname="my-story-background.svg"
   xmlns:inkscape="http://www.inkscape.org/namespaces/inkscape"
   xmlns:sodipodi="http://sodipodi.sourceforge.net/DTD/sodipodi-0.dtd"
   xmlns="http://www.w3.org/2000/svg"
   xmlns:svg="http://www.w3.org/2000/svg">
  <sodipodi:namedview
     id="namedview1"
     pagecolor="#ffffff"
     bordercolor="#000000"
     borderopacity="0.25"
     inkscape:showpageshadow="2"
     inkscape:pageopacity="0.0"
     inkscape:pagecheckerboard="0"
     inkscape:deskcolor="#d1d1d1"
     inkscape:document-units="mm"
     inkscape:zoom="2.1962087"
     inkscape:cx="228.34806"
     inkscape:cy="12.749244"
     inkscape:window-width="1680"
     inkscape:window-height="986"
     inkscape:window-x="0"
     inkscape:window-y="0"
     inkscape:window-maximized="1"
     inkscape:current-layer="layer1" />
  <defs
     id="defs1" />
  <g
     inkscape:label="Layer 1"
     inkscape:groupmode="layer"
     id="layer1">
    <rect
       style="fill:#729d4b;fill-opacity:1;stroke-width:0.477966"
       id="rect1"
       width="220.50764"
       height="316.68832"
       x="-4.5782514"
       y="-6.6443901" />
    <path
       style="fill:#91b15a;fill-opacity:1;stroke-width:0.264999"
       d="m 53.904972,34.306801 c -0.44318,-2.962365 0.03917,-5.924783 -0.147799,-8.904468 -0.449056,-7.156412 -0.127968,-19.3892307 3.592388,-26.12220197 5.406642,-9.78474203 17.687568,-11.39413503 22.482866,0 3.837016,9.11715827 -0.726234,18.96999297 1.032856,28.43482497 0.473107,2.545572 1.133221,5.619771 2.458683,8.116784 5.258311,9.906036 11.751962,20.087088 21.204834,26.122201 9.30923,5.943403 21.28072,7.504012 32.12459,8.116784 11.14417,0.62974 22.51096,-0.761492 33.45304,2.065711 6.28694,1.624414 8.06588,7.870502 13.38191,10.528519 3.62555,1.812774 8.90798,1.242679 12.79072,1.672738 5.52161,0.611585 12.37165,4.478854 17.07167,7.229988 2.79748,1.637486 1.90993,4.177412 2.45869,6.790072 0.80661,3.840317 3.18822,7.299477 3.64107,11.215347 0.79588,6.88196 -3.13159,20.79647 -7.47863,26.4178 -2.85815,3.69598 -6.33012,3.78305 -10.4781,3.93494 -18.31291,0.67055 -16.17869,-9.88491 -19.67815,-22.97321 -1.57729,-5.89918 -3.85219,-11.43342 -7.08393,-16.67697 -3.05237,-4.952517 -9.62384,-8.011389 -14.85817,-10.034692 C 143.8665,84.053536 127.23184,87.492413 110.57987,85.026263 97.810073,83.135061 89.97054,76.291476 80.028911,69.037869 77.244315,67.006173 73.969728,65.98133 71.173133,64.118764 67.688052,61.797659 65.511756,57.965083 62.712065,54.967388 58.362008,50.309679 50.840645,41.211026 53.904972,34.306801 Z"
       id="path2"
       sodipodi:nodetypes="cssssaassssssssssssssssc" />
    <path
       style="fill:#91b15a;fill-opacity:1;stroke-width:0.264999"
       d="m 97.648314,170.27162 c 9.227626,-3.43458 18.850086,-6.0234 27.845366,-10.08513 4.91741,-2.2204 9.96913,-4.47354 14.70863,-7.03524 3.05953,-1.65368 6.90495,-1.53073 10.03643,-3.19594 13.66948,-7.26894 32.0948,-17.54354 28.77911,-36.30643 -0.69244,-3.91838 -1.27958,-8.3167 -4.62351,-11.01887 -10.11966,-8.1775 -27.85151,-14.993754 -40.39091,-17.268155 -5.28072,-0.957821 -10.6757,-0.839951 -15.9397,-1.721427 -6.87498,-1.151233 -13.68757,-3.796463 -20.514526,-5.312076 -3.464698,-0.769176 -19.363039,-3.485375 -21.842981,1.474515 -2.167425,4.334848 9.269489,6.844715 11.610059,7.626437 2.519968,0.84164 8.380029,2.682814 10.332032,4.082735 3.027466,2.171213 4.826046,5.673336 8.953146,6.887443 8.37626,2.464108 34.04577,2.633528 33.94513,15.004228 -0.074,9.09689 -19.06543,3.85223 -25.13803,10.62589 -7.17549,8.00388 -4.27028,24.48183 -9.24875,30.8935 -2.48576,3.20135 -14.920681,5.57186 -19.432985,9.74084 -2.007558,1.85481 -2.715136,4.23032 -3.590653,6.68922 -2.776349,7.79741 12.093125,0.12797 17.169048,-2.41"
       id="path4"
       sodipodi:nodetypes="cssssssssssssaasssc" />
    <path
       style="fill:#91b15a;fill-opacity:1;stroke-width:0.264999"
       d="m 56.177603,296.89726 c 2.166646,8.76792 18.593459,8.0847 24.153862,2.21525 4.821586,-5.08957 -2.506257,-13.82041 -3.049878,-20.81011 -0.652286,-8.38688 -2.163281,-17.04481 -0.245174,-25.23542 0.817706,-3.49173 3.283389,-6.37711 4.870418,-9.59303 2.164973,-4.38705 3.667954,-9.13935 6.344933,-13.23412 17.329156,-26.50707 22.162386,-12.11758 27.895796,-22.62892 4.3842,-8.03777 -0.73636,-18.94399 2.99945,-27.30286 3.31683,-7.42141 20.8275,-11.41266 16.28399,-18.15322 -2.10488,-3.12271 -9.68113,3.44353 -10.62589,3.83757 -13.74383,5.73221 -22.85253,8.78496 -34.83018,18.4975 -8.485071,6.88044 -18.919955,9.49599 -25.877031,18.44708 -4.004939,5.15282 -5.156933,11.60676 -7.330839,17.61244 -4.654558,12.85881 -11.683884,29.82698 -9.445239,43.73291 0.845754,5.25363 3.080017,10.06749 4.181848,15.20072 1.369989,6.38254 1.981237,11.39978 4.673934,17.41421 z"
       id="path3"
       sodipodi:nodetypes="caaaaaaaacsssssc" />
    <path
       style="fill:#746c2f;fill-opacity:1;stroke-width:0.264999"
       d="M 66.003058,-3.2858431 C 56.22954,11.683438 59.502196,32.291161 66.862569,47.561303 93.775659,103.39634 184.01255,63.83481 189.5636,109.28004 c 6.60071,54.03861 -102.600582,56.2709 -123.948003,106.35113 -14.146419,33.18695 -11.2542,72.37769 6.033471,108.0604 l -13.875669,2.44564 C 47.988856,293.853 27.295719,233.5779 47.439408,194.41042 69.916646,150.70558 176.81143,167.34339 173.71104,118.29518 171.06873,76.493937 84.365634,100.65848 58.784589,67.493209 44.068913,48.41465 47.391679,12.663173 47.309113,-3.8734248 Z"
       id="path1"
       sodipodi:nodetypes="caaaccaaacc" />
    <path
       style="fill:#608f36;fill-opacity:1;stroke-width:0.264999"
       d="m 120.75179,-5.6357379 c -5.49849,8.148397 -0.68623,10.3739523 2.65814,17.5440789 1.49175,3.198237 -0.74325,7.74882 1.00436,10.22117 9.39122,13.285806 54.85544,9.06367 69.94872,13.881582 5.61973,1.793867 7.0729,10.819842 9.45275,15.243011 3.20518,5.957099 18.91701,8.782372 24.8127,7.97439 12.10332,-1.658709 17.14109,-14.67573 15.00497,-25.817067 -0.65793,-3.431575 -2.60392,-6.574835 -3.19059,-10.10006 -0.62191,-3.736966 1.742,-8.778119 -0.64939,-11.993953 C 233.00808,2.192787 222.19236,-3.4419309 212.55857,-8.9453507 199.69683,-16.292775 176.7418,-23.881233 162.04783,-21.056236 c -6.43792,1.237725 -18.42184,3.237286 -23.27796,8.093412 -4.74712,4.7471142 -10.96487,13.3466349 -18.01808,7.3270861 z"
       id="path5" />
    <path
       style="fill:#608f36;fill-opacity:1;stroke-width:0.264999"
       d="m 122.76261,312.42534 c -5.48499,-4.34015 -18.0729,-12.42248 -14.71055,-21.44461 0.94779,-2.54318 4.1254,-4.51991 5.84873,-6.49812 1.44791,-1.66208 1.80391,-4.94633 3.42654,-6.14524 3.77556,-2.7896 8.36627,-0.7779 12.4053,-0.53035 2.17707,0.1334 3.79998,-1.5521 5.79026,-1.4763 5.83229,0.2222 10.17518,4.5497 15.47897,6.02414 2.86717,0.79706 5.55764,-2.77251 8.21034,-2.06721 11.251,2.99145 8.43666,8.92479 21.7996,2.42218 2.44232,-1.18849 6.16693,-2.02999 7.85746,-4.31189 9.09507,-12.27675 -14.20325,-12.99811 -17.13273,-20.02681 -1.2666,-3.03893 0.0801,-6.5038 -0.94382,-9.56969 -1.70817,-5.11446 -5.32381,-9.58698 -6.32271,-15.06553 -0.87969,-4.82469 4.05869,-22.94983 7.50248,-26.81934 3.11745,-3.50283 9.95627,-0.84334 12.64335,-4.31398 7.37105,-9.5205 20.60023,-21.61008 33.55759,-22.38844 3.38493,-0.20333 9.47418,-0.35463 12.69973,1.1213 8.12277,3.71679 9.06473,16.76788 10.57614,23.74987 2.7057,12.49905 4.50388,25.16365 3.83999,38.04488 -0.44165,8.56913 -4.4517,15.50731 -6.38119,23.62877 -4.18783,17.62715 -4.32189,33.49188 -18.55053,46.84824 -19.45419,18.26154 -47.37317,22.8024 -71.83843,12.81874 -5.18181,-2.11458 -9.00786,-2.5581 -13.58717,-5.79025 -4.43466,-3.1301 -9.53803,-3.07176 -12.16935,-8.21036 z"
       id="path6" />
    <path
       style="fill:#608f36;fill-opacity:1;stroke-width:0.264999"
       d="m -12.115062,308.17193 c 3.4775971,1.91158 29.94794,-2.1607 33.438573,-7.38347 3.451747,-5.16458 -6.144061,-15.82518 -7.444019,-20.91216 -1.887778,-7.38722 0.676339,-17.2336 0.473995,-24.92963 -0.09161,-3.48424 -1.413996,-6.72651 -1.181855,-10.27964 0.235303,-3.60152 2.594619,-6.68261 3.365991,-10.16061 1.021232,-4.60458 0.160433,-9.40544 1.595296,-13.94214 2.79251,-8.82925 8.895993,-16.77329 11.697444,-25.87553 1.953786,-6.34808 -1.08635,-13.7774 1.53683,-19.67184 3.597698,-8.08424 13.45049,-8.62609 19.141463,-13.94213 2.556907,-2.38845 3.400192,-8.46964 4.370361,-11.69745 3.897929,-12.96864 1.321149,-25.15038 -10.041596,-33.67243 -2.728299,-2.04623 -5.904727,-2.67446 -8.389919,-5.08031 -4.247076,-4.11148 -11.437088,-7.78452 -14.946504,-12.169355 -1.98795,-2.483839 -1.94544,-6.26877 -3.959007,-8.684339 C 13.826472,85.313585 8.5723298,82.268842 4.3098047,78.428426 -2.4393094,72.347658 -5.2080588,63.765691 -16.013514,67.499393 c -3.735083,1.290617 -7.140363,4.784754 -8.68434,8.387834 -4.510262,10.525308 6.042909,23.818448 5.493748,35.090243 -0.61963,12.71821 -6.350987,24.6901 -6.675604,37.692 -0.270673,10.84131 -0.573502,21.83163 -0.354974,32.66807 0.202848,10.0589 2.306413,18.88629 -1.298789,28.6506 -4.67452,12.66045 1.570553,23.07109 3.307526,35.50578 1.19094,8.52573 -2.152201,16.65248 -1.062835,25.10712 1.726456,13.39913 8.64561,25.32332 13.17372,37.57089 z"
       id="path7" />
    <path
       style="fill:#608f36;fill-opacity:1;stroke-width:0.264999"
       d="M -21.862237,42.628229 C -8.4525786,49.200823 -9.3324258,35.527152 -2.3657989,31.6992 0.82261968,29.947258 3.5703898,33.722669 6.4354741,32.290128 17.424642,26.795542 26.139998,14.774825 28.354088,2.9880478 28.672549,1.2927109 29.803846,-1.4574082 28.235068,-2.919141 14.844571,-15.395934 -13.106534,-6.4887543 -20.208474,8.2458427 -23.590155,15.261911 -22.350632,23.6719 -23.693486,31.108271 c -0.464209,2.570668 -5.143864,15.555791 1.831249,11.519958 z"
       id="path8" />
  </g>
</svg>
