<?xml version="1.0" encoding="UTF-8" standalone="no"?>
<!-- Created with Inkscape (http://www.inkscape.org/) -->

<svg
   width="210mm"
   height="297mm"
   viewBox="0 0 210 297"
   version="1.1"
   id="svg1"
   inkscape:version="1.3.2 (091e20e, 2023-11-25)"
   sodipodi:docname="my-story-background.svg"
   xmlns:inkscape="http://www.inkscape.org/namespaces/inkscape"
   xmlns:sodipodi="http://sodipodi.sourceforge.net/DTD/sodipodi-0.dtd"
   xmlns="http://www.w3.org/2000/svg"
   xmlns:svg="http://www.w3.org/2000/svg">
  <sodipodi:namedview
     id="namedview1"
     pagecolor="#ffffff"
     bordercolor="#000000"
     borderopacity="0.25"
     inkscape:showpageshadow="2"
     inkscape:pageopacity="0.0"
     inkscape:pagecheckerboard="0"
     inkscape:deskcolor="#d1d1d1"
     inkscape:document-units="mm"
     inkscape:zoom="1.585618"
     inkscape:cx="578.00806"
     inkscape:cy="309.65844"
     inkscape:window-width="2560"
     inkscape:window-height="1376"
     inkscape:window-x="0"
     inkscape:window-y="0"
     inkscape:window-maximized="1"
     inkscape:current-layer="layer1" />
  <defs
     id="defs1" />
  <g
     inkscape:label="Layer 1"
     inkscape:groupmode="layer"
     id="layer1">
    <rect
       style="fill:#729d4b;fill-opacity:1;stroke-width:0.477966"
       id="rect1"
       width="220.50764"
       height="316.68832"
       x="-4.5782514"
       y="-6.6443901" />
    <path
       style="fill:#91b15a;fill-opacity:1;stroke-width:0.264999"
       d="m 53.904972,34.306801 c -0.44318,-2.962365 0.03917,-5.924783 -0.147799,-8.904468 -0.449056,-7.156412 -0.127968,-19.3892307 3.592388,-26.12220197 5.406642,-9.78474203 17.687568,-11.39413503 22.482866,0 3.837016,9.11715827 -0.726234,18.96999297 1.032856,28.43482497 0.473107,2.545572 1.133221,5.619771 2.458683,8.116784 5.258311,9.906036 11.751962,20.087088 21.204834,26.122201 9.30923,5.943403 21.28072,7.504012 32.12459,8.116784 11.14417,0.62974 22.51096,-0.761492 33.45304,2.065711 6.28694,1.624414 8.06588,7.870502 13.38191,10.528519 3.62555,1.812774 8.90798,1.242679 12.79072,1.672738 5.52161,0.611585 12.37165,4.478854 17.07167,7.229988 2.79748,1.637486 1.90993,4.177412 2.45869,6.790072 0.80661,3.840317 3.18822,7.299477 3.64107,11.215347 0.79588,6.88196 -3.13159,20.79647 -7.47863,26.4178 -2.85815,3.69598 -6.33012,3.78305 -10.4781,3.93494 -18.31291,0.67055 -16.17869,-9.88491 -19.67815,-22.97321 -1.57729,-5.89918 -3.85219,-11.43342 -7.08393,-16.67697 -3.05237,-4.952517 -9.62384,-8.011389 -14.85817,-10.034692 C 143.8665,84.053536 127.23184,87.492413 110.57987,85.026263 97.810073,83.135061 89.97054,76.291476 80.028911,69.037869 77.244315,67.006173 73.969728,65.98133 71.173133,64.118764 67.688052,61.797659 65.511756,57.965083 62.712065,54.967388 58.362008,50.309679 50.840645,41.211026 53.904972,34.306801 Z"
       id="path2"
       sodipodi:nodetypes="cssssaassssssssssssssssc" />
    <path
       style="fill:#91b15a;fill-opacity:1;stroke-width:0.264999"
       d="m 97.648314,170.27162 c 9.227626,-3.43458 18.850086,-6.0234 27.845366,-10.08513 4.91741,-2.2204 9.96913,-4.47354 14.70863,-7.03524 3.05953,-1.65368 6.90495,-1.53073 10.03643,-3.19594 13.66948,-7.26894 32.0948,-17.54354 28.77911,-36.30643 -0.69244,-3.91838 -1.27958,-8.3167 -4.62351,-11.01887 -10.11966,-8.1775 -27.85151,-14.993754 -40.39091,-17.268155 -5.28072,-0.957821 -10.6757,-0.839951 -15.9397,-1.721427 -6.87498,-1.151233 -13.68757,-3.796463 -20.514526,-5.312076 -3.464698,-0.769176 -19.363039,-3.485375 -21.842981,1.474515 -2.167425,4.334848 9.269489,6.844715 11.610059,7.626437 2.519968,0.84164 8.380029,2.682814 10.332032,4.082735 3.027466,2.171213 4.826046,5.673336 8.953146,6.887443 8.37626,2.464108 34.04577,2.633528 33.94513,15.004228 -0.074,9.09689 -19.06543,3.85223 -25.13803,10.62589 -7.17549,8.00388 -4.27028,24.48183 -9.24875,30.8935 -2.48576,3.20135 -14.920681,5.57186 -19.432985,9.74084 -2.007558,1.85481 -2.715136,4.23032 -3.590653,6.68922 -2.776349,7.79741 12.093125,0.12797 17.169048,-2.41"
       id="path4"
       sodipodi:nodetypes="cssssssssssssaasssc" />
    <path
       style="fill:#91b15a;fill-opacity:1;stroke-width:0.264999"
       d="m 56.177603,296.89726 c 2.166646,8.76792 18.593459,8.0847 24.153862,2.21525 4.821586,-5.08957 -2.506257,-13.82041 -3.049878,-20.81011 -0.652286,-8.38688 -2.163281,-17.04481 -0.245174,-25.23542 0.817706,-3.49173 3.283389,-6.37711 4.870418,-9.59303 2.164973,-4.38705 3.667954,-9.13935 6.344933,-13.23412 17.329156,-26.50707 22.162386,-12.11758 27.895796,-22.62892 4.3842,-8.03777 -0.73636,-18.94399 2.99945,-27.30286 3.31683,-7.42141 20.8275,-11.41266 16.28399,-18.15322 -2.10488,-3.12271 -9.68113,3.44353 -10.62589,3.83757 -13.74383,5.73221 -22.85253,8.78496 -34.83018,18.4975 -8.485071,6.88044 -18.919955,9.49599 -25.877031,18.44708 -4.004939,5.15282 -5.156933,11.60676 -7.330839,17.61244 -4.654558,12.85881 -11.683884,29.82698 -9.445239,43.73291 0.845754,5.25363 3.080017,10.06749 4.181848,15.20072 1.369989,6.38254 1.981237,11.39978 4.673934,17.41421 z"
       id="path3"
       sodipodi:nodetypes="caaaaaaaacsssssc" />
    <path
       style="fill:#746c2f;fill-opacity:1;stroke-width:0.264999"
       d="M 66.003058,-3.2858431 C 56.22954,11.683438 59.502196,32.291161 66.862569,47.561303 93.775659,103.39634 184.01255,63.83481 189.5636,109.28004 c 6.60071,54.03861 -102.600582,56.2709 -123.948003,106.35113 -14.146419,33.18695 -11.2542,72.37769 6.033471,108.0604 l -13.875669,2.44564 C 47.988856,293.853 27.295719,233.5779 47.439408,194.41042 69.916646,150.70558 176.81143,167.34339 173.71104,118.29518 171.06873,76.493937 84.365634,100.65848 58.784589,67.493209 44.068913,48.41465 47.391679,12.663173 47.309113,-3.8734248 Z"
       id="path1"
       sodipodi:nodetypes="caaaccaaacc" />
    <path
       style="fill:#608f36;fill-opacity:1;stroke-width:0.264999"
       d="m 120.75179,-5.6357379 c -5.49849,8.148397 -0.68623,10.3739523 2.65814,17.5440789 1.49175,3.198237 -0.74325,7.74882 1.00436,10.22117 9.39122,13.285806 54.85544,9.06367 69.94872,13.881582 5.61973,1.793867 7.0729,10.819842 9.45275,15.243011 3.20518,5.957099 18.91701,8.782372 24.8127,7.97439 12.10332,-1.658709 17.14109,-14.67573 15.00497,-25.817067 -0.65793,-3.431575 -2.60392,-6.574835 -3.19059,-10.10006 -0.62191,-3.736966 1.742,-8.778119 -0.64939,-11.993953 C 233.00808,2.192787 222.19236,-3.4419309 212.55857,-8.9453507 199.69683,-16.292775 176.7418,-23.881233 162.04783,-21.056236 c -6.43792,1.237725 -18.42184,3.237286 -23.27796,8.093412 -4.74712,4.7471142 -10.96487,13.3466349 -18.01808,7.3270861 z"
       id="path5" />
    <path
       style="fill:#608f36;fill-opacity:1;stroke-width:0.264999"
       d="m 122.76261,312.42534 c -5.48499,-4.34015 -18.0729,-12.42248 -14.71055,-21.44461 0.94779,-2.54318 4.1254,-4.51991 5.84873,-6.49812 1.44791,-1.66208 1.80391,-4.94633 3.42654,-6.14524 3.77556,-2.7896 8.36627,-0.7779 12.4053,-0.53035 2.17707,0.1334 3.79998,-1.5521 5.79026,-1.4763 5.83229,0.2222 10.17518,4.5497 15.47897,6.02414 2.86717,0.79706 5.55764,-2.77251 8.21034,-2.06721 11.251,2.99145 8.43666,8.92479 21.7996,2.42218 2.44232,-1.18849 6.16693,-2.02999 7.85746,-4.31189 9.09507,-12.27675 -14.20325,-12.99811 -17.13273,-20.02681 -1.2666,-3.03893 0.0801,-6.5038 -0.94382,-9.56969 -1.70817,-5.11446 -5.32381,-9.58698 -6.32271,-15.06553 -0.87969,-4.82469 4.05869,-22.94983 7.50248,-26.81934 3.11745,-3.50283 9.95627,-0.84334 12.64335,-4.31398 7.37105,-9.5205 20.60023,-21.61008 33.55759,-22.38844 3.38493,-0.20333 9.47418,-0.35463 12.69973,1.1213 8.12277,3.71679 9.06473,16.76788 10.57614,23.74987 2.7057,12.49905 4.50388,25.16365 3.83999,38.04488 -0.44165,8.56913 -4.4517,15.50731 -6.38119,23.62877 -4.18783,17.62715 -4.32189,33.49188 -18.55053,46.84824 -19.45419,18.26154 -47.37317,22.8024 -71.83843,12.81874 -5.18181,-2.11458 -9.00786,-2.5581 -13.58717,-5.79025 -4.43466,-3.1301 -9.53803,-3.07176 -12.16935,-8.21036 z"
       id="path6" />
    <path
       style="fill:#608f36;fill-opacity:1;stroke-width:0.264999"
       d="m -12.115062,308.17193 c 3.4775971,1.91158 29.94794,-2.1607 33.438573,-7.38347 3.451747,-5.16458 -6.144061,-15.82518 -7.444019,-20.91216 -1.887778,-7.38722 0.676339,-17.2336 0.473995,-24.92963 -0.09161,-3.48424 -1.413996,-6.72651 -1.181855,-10.27964 0.235303,-3.60152 2.594619,-6.68261 3.365991,-10.16061 1.021232,-4.60458 0.160433,-9.40544 1.595296,-13.94214 2.79251,-8.82925 8.895993,-16.77329 11.697444,-25.87553 1.953786,-6.34808 -1.08635,-13.7774 1.53683,-19.67184 3.597698,-8.08424 13.45049,-8.62609 19.141463,-13.94213 2.556907,-2.38845 3.400192,-8.46964 4.370361,-11.69745 3.897929,-12.96864 1.321149,-25.15038 -10.041596,-33.67243 -2.728299,-2.04623 -5.904727,-2.67446 -8.389919,-5.08031 -4.247076,-4.11148 -11.437088,-7.78452 -14.946504,-12.169355 -1.98795,-2.483839 -1.94544,-6.26877 -3.959007,-8.684339 C 13.826472,85.313585 8.5723298,82.268842 4.3098047,78.428426 -2.4393094,72.347658 -5.2080588,63.765691 -16.013514,67.499393 c -3.735083,1.290617 -7.140363,4.784754 -8.68434,8.387834 -4.510262,10.525308 6.042909,23.818448 5.493748,35.090243 -0.61963,12.71821 -6.350987,24.6901 -6.675604,37.692 -0.270673,10.84131 -0.573502,21.83163 -0.354974,32.66807 0.202848,10.0589 2.306413,18.88629 -1.298789,28.6506 -4.67452,12.66045 1.570553,23.07109 3.307526,35.50578 1.19094,8.52573 -2.152201,16.65248 -1.062835,25.10712 1.726456,13.39913 8.64561,25.32332 13.17372,37.57089 z"
       id="path7" />
    <path
       style="fill:#608f36;fill-opacity:1;stroke-width:0.264999"
       d="M -21.862237,42.628229 C -8.4525786,49.200823 -9.3324258,35.527152 -2.3657989,31.6992 0.82261968,29.947258 3.5703898,33.722669 6.4354741,32.290128 17.424642,26.795542 26.139998,14.774825 28.354088,2.9880478 28.672549,1.2927109 29.803846,-1.4574082 28.235068,-2.919141 14.844571,-15.395934 -13.106534,-6.4887543 -20.208474,8.2458427 -23.590155,15.261911 -22.350632,23.6719 -23.693486,31.108271 c -0.464209,2.570668 -5.143864,15.555791 1.831249,11.519958 z"
       id="path8" />
    <g
       id="g92"
       transform="translate(-10.690087,-6.5709272)">
      <g
         id="g18"
         transform="matrix(0.62244713,0,0,0.62244713,-79.189056,4.7116205)">
        <rect
           style="fill:#6d7384;fill-opacity:1;stroke-width:0.416678"
           id="rect10"
           width="243.09062"
           height="14.198043"
           x="-28.563332"
           y="206.35138" />
        <path
           sodipodi:type="star"
           style="fill:#6d7384;fill-opacity:1;stroke-width:0.264999"
           id="path15"
           inkscape:flatsided="true"
           sodipodi:sides="8"
           sodipodi:cx="-63.624565"
           sodipodi:cy="199.22479"
           sodipodi:r1="16.879532"
           sodipodi:r2="15.594653"
           sodipodi:arg1="1.0471976"
           sodipodi:arg2="1.4398966"
           inkscape:rounded="0"
           inkscape:randomized="0"
           d="m -55.1848,213.8429 -12.80851,1.68627 -10.249359,-7.86461 -1.686272,-12.80851 7.864611,-10.24936 12.80851,-1.68627 10.249359,7.86461 1.686271,12.80851 z"
           inkscape:transform-center-y="-2.5424389e-06"
           transform="rotate(6.8450422,-107.38434,1463.2921)" />
        <path
           sodipodi:type="star"
           style="fill:#6d7384;fill-opacity:1;stroke-width:0.264999"
           id="path16"
           inkscape:flatsided="true"
           sodipodi:sides="8"
           sodipodi:cx="-63.624565"
           sodipodi:cy="199.22479"
           sodipodi:r1="16.879532"
           sodipodi:r2="15.594653"
           sodipodi:arg1="1.0471976"
           sodipodi:arg2="1.4398966"
           inkscape:rounded="0"
           inkscape:randomized="0"
           d="m -55.1848,213.8429 -12.80851,1.68627 -10.249359,-7.86461 -1.686272,-12.80851 7.864611,-10.24936 12.80851,-1.68627 10.249359,7.86461 1.686271,12.80851 z"
           inkscape:transform-center-y="-2.5424389e-06"
           transform="rotate(6.8450422,-74.810552,2007.955)" />
        <path
           sodipodi:type="star"
           style="fill:#6d7384;fill-opacity:1;stroke-width:0.264999"
           id="path17"
           inkscape:flatsided="true"
           sodipodi:sides="8"
           sodipodi:cx="-63.624565"
           sodipodi:cy="199.22479"
           sodipodi:r1="16.879532"
           sodipodi:r2="15.594653"
           sodipodi:arg1="1.0471976"
           sodipodi:arg2="1.4398966"
           inkscape:rounded="0"
           inkscape:randomized="0"
           d="m -55.1848,213.8429 -12.80851,1.68627 -10.249359,-7.86461 -1.686272,-12.80851 7.864611,-10.24936 12.80851,-1.68627 10.249359,7.86461 1.686271,12.80851 z"
           inkscape:transform-center-y="-2.5424389e-06"
           transform="rotate(6.8450422,-139.95813,918.6292)" />
        <path
           sodipodi:type="star"
           style="fill:#6d7384;fill-opacity:1;stroke-width:0.264999"
           id="path18"
           inkscape:flatsided="true"
           sodipodi:sides="8"
           sodipodi:cx="-63.624565"
           sodipodi:cy="199.22479"
           sodipodi:r1="16.879532"
           sodipodi:r2="15.594653"
           sodipodi:arg1="1.0471976"
           sodipodi:arg2="1.4398966"
           inkscape:rounded="0"
           inkscape:randomized="0"
           d="m -55.1848,213.8429 -12.80851,1.68627 -10.249359,-7.86461 -1.686272,-12.80851 7.864611,-10.24936 12.80851,-1.68627 10.249359,7.86461 1.686271,12.80851 z"
           inkscape:transform-center-y="-2.5424389e-06"
           transform="rotate(6.8450422,-42.236763,2552.6179)" />
      </g>
      <g
         id="g28"
         transform="matrix(0.44495818,0.43526157,-0.43526157,0.44495818,110.20972,4.7435659)">
        <rect
           style="fill:#6d7384;fill-opacity:1;stroke-width:0.427275"
           id="rect23"
           width="127.51235"
           height="14.198044"
           x="87.014961"
           y="206.35138" />
        <path
           sodipodi:type="star"
           style="fill:#6d7384;fill-opacity:1;stroke-width:0.264999"
           id="path24"
           inkscape:flatsided="true"
           sodipodi:sides="8"
           sodipodi:cx="-63.624565"
           sodipodi:cy="199.22479"
           sodipodi:r1="16.879532"
           sodipodi:r2="15.594653"
           sodipodi:arg1="1.0471976"
           sodipodi:arg2="1.4398966"
           inkscape:rounded="0"
           inkscape:randomized="0"
           d="m -55.1848,213.8429 -12.80851,1.68627 -10.249359,-7.86461 -1.686272,-12.80851 7.864611,-10.24936 12.80851,-1.68627 10.249359,7.86461 1.686271,12.80851 z"
           inkscape:transform-center-y="-2.5424389e-06"
           transform="rotate(6.8450422,-107.38434,1463.2921)" />
        <path
           sodipodi:type="star"
           style="fill:#6d7384;fill-opacity:1;stroke-width:0.264999"
           id="path25"
           inkscape:flatsided="true"
           sodipodi:sides="8"
           sodipodi:cx="-63.624565"
           sodipodi:cy="199.22479"
           sodipodi:r1="16.879532"
           sodipodi:r2="15.594653"
           sodipodi:arg1="1.0471976"
           sodipodi:arg2="1.4398966"
           inkscape:rounded="0"
           inkscape:randomized="0"
           d="m -55.1848,213.8429 -12.80851,1.68627 -10.249359,-7.86461 -1.686272,-12.80851 7.864611,-10.24936 12.80851,-1.68627 10.249359,7.86461 1.686271,12.80851 z"
           inkscape:transform-center-y="-2.5424389e-06"
           transform="rotate(6.8450422,-74.810552,2007.955)" />
      </g>
      <g
         id="g22"
         transform="matrix(0.62244713,0,0,0.62244713,146.39968,66.604834)">
        <rect
           style="fill:#6d7384;fill-opacity:1;stroke-width:0.427275"
           id="rect18"
           width="255.61299"
           height="14.198043"
           x="-41.085697"
           y="206.35138" />
        <path
           sodipodi:type="star"
           style="fill:#6d7384;fill-opacity:1;stroke-width:0.264999"
           id="path20"
           inkscape:flatsided="true"
           sodipodi:sides="8"
           sodipodi:cx="-63.624565"
           sodipodi:cy="199.22479"
           sodipodi:r1="16.879532"
           sodipodi:r2="15.594653"
           sodipodi:arg1="1.0471976"
           sodipodi:arg2="1.4398966"
           inkscape:rounded="0"
           inkscape:randomized="0"
           d="m -55.1848,213.8429 -12.80851,1.68627 -10.249359,-7.86461 -1.686272,-12.80851 7.864611,-10.24936 12.80851,-1.68627 10.249359,7.86461 1.686271,12.80851 z"
           inkscape:transform-center-y="-2.5424389e-06"
           transform="rotate(6.8450422,-74.810552,2007.955)" />
        <path
           sodipodi:type="star"
           style="fill:#6d7384;fill-opacity:1;stroke-width:0.264999"
           id="path22"
           inkscape:flatsided="true"
           sodipodi:sides="8"
           sodipodi:cx="-63.624565"
           sodipodi:cy="199.22479"
           sodipodi:r1="16.879532"
           sodipodi:r2="15.594653"
           sodipodi:arg1="1.0471976"
           sodipodi:arg2="1.4398966"
           inkscape:rounded="0"
           inkscape:randomized="0"
           d="m -55.1848,213.8429 -12.80851,1.68627 -10.249359,-7.86461 -1.686272,-12.80851 7.864611,-10.24936 12.80851,-1.68627 10.249359,7.86461 1.686271,12.80851 z"
           inkscape:transform-center-y="-2.5424389e-06"
           transform="rotate(6.8450422,-42.236763,2552.6179)" />
        <g
           id="g38"
           style="display:inline">
          <path
             sodipodi:type="star"
             style="display:inline;fill:#858c99;fill-opacity:1;stroke-width:0.264999"
             id="path21"
             inkscape:flatsided="true"
             sodipodi:sides="8"
             sodipodi:cx="-63.624565"
             sodipodi:cy="199.22479"
             sodipodi:r1="16.879532"
             sodipodi:r2="15.594653"
             sodipodi:arg1="1.0471976"
             sodipodi:arg2="1.4398966"
             inkscape:rounded="0"
             inkscape:randomized="0"
             d="m -55.1848,213.8429 -12.80851,1.68627 -10.249359,-7.86461 -1.686272,-12.80851 7.864611,-10.24936 12.80851,-1.68627 10.249359,7.86461 1.686271,12.80851 z"
             inkscape:transform-center-y="-2.5424389e-06"
             transform="rotate(6.8450424,-139.95784,918.62923)" />
          <path
             id="rect32"
             style="fill:#6d7384;fill-opacity:1;stroke-width:0.425737"
             d="m 35.181486,210.54931 v 5.41631 l 2.01659,0.0149 -0.03155,-5.41632 z m -29.5365237,0.3711 0.03985,5.41632 2.5155484,0.0141 v -5.41631 z" />
          <path
             style="fill:#6d7384;fill-opacity:1;stroke-width:0.425737"
             d="m 19.433598,229.07053 5.415454,-0.0619 -0.01606,-2.28659 -5.41592,0.0649 z"
             id="path34" />
          <path
             style="fill:#6d7384;fill-opacity:1;stroke-width:0.425737"
             d="m 18.708362,200.16565 5.415921,-0.0648 -0.0093,-2.27517 -5.415552,0.0619 z"
             id="path33" />
          <path
             style="fill:#6d7384;fill-opacity:1;stroke-width:0.425737"
             d="m 30.835955,226.29026 3.779357,-3.87909 -1.630773,-1.60291 -3.777558,3.88155 z"
             id="path35" />
          <path
             style="fill:#6d7384;fill-opacity:1;stroke-width:0.425737"
             d="m 10.161,206.09131 3.779357,-3.87909 -1.630773,-1.60291 -3.7775583,3.88155 z"
             id="path36" />
          <path
             style="fill:#6d7384;fill-opacity:1;stroke-width:0.264999"
             d="m 151.83722,205.23046 2.41156,2.3555 0.99901,-1.01381 -2.41308,-2.35437 z"
             id="path37"
             transform="matrix(1.6065622,0,0,1.6065622,-235.20018,-107.00481)" />
          <path
             sodipodi:type="star"
             style="display:inline;fill:#6d7384;fill-opacity:1;stroke-width:0.264999"
             id="path32"
             inkscape:flatsided="true"
             sodipodi:sides="8"
             sodipodi:cx="-63.624565"
             sodipodi:cy="199.22479"
             sodipodi:r1="16.879532"
             sodipodi:r2="15.594653"
             sodipodi:arg1="1.0471976"
             sodipodi:arg2="1.4398966"
             inkscape:rounded="0"
             inkscape:randomized="0"
             d="m -55.1848,213.8429 -12.80851,1.68627 -10.249359,-7.86461 -1.686272,-12.80851 7.864611,-10.24936 12.80851,-1.68627 10.249359,7.86461 1.686271,12.80851 z"
             inkscape:transform-center-y="-1.1823058e-06"
             transform="matrix(0.87041776,0.10448509,-0.10448509,0.87041776,97.769191,46.689422)" />
          <path
             style="display:inline;fill:#6d7384;fill-opacity:1;stroke-width:0.425737"
             d="m 28.932624,202.0337 3.874321,3.78426 1.604972,-1.62875 -3.876764,-3.78244 z"
             id="path38"
             transform="translate(2.0416727e-6)" />
        </g>
        <g
           id="g55"
           style="display:inline"
           transform="translate(-65.147585,3.3913214e-5)">
          <path
             sodipodi:type="star"
             style="display:inline;fill:#858c99;fill-opacity:1;stroke-width:0.264999"
             id="path47"
             inkscape:flatsided="true"
             sodipodi:sides="8"
             sodipodi:cx="-63.624565"
             sodipodi:cy="199.22479"
             sodipodi:r1="16.879532"
             sodipodi:r2="15.594653"
             sodipodi:arg1="1.0471976"
             sodipodi:arg2="1.4398966"
             inkscape:rounded="0"
             inkscape:randomized="0"
             d="m -55.1848,213.8429 -12.80851,1.68627 -10.249359,-7.86461 -1.686272,-12.80851 7.864611,-10.24936 12.80851,-1.68627 10.249359,7.86461 1.686271,12.80851 z"
             inkscape:transform-center-y="-2.5424389e-06"
             transform="rotate(6.8450424,-139.95784,918.62923)" />
          <path
             id="path48"
             style="fill:#6d7384;fill-opacity:1;stroke-width:0.425737"
             d="m 35.181486,210.54931 v 5.41631 l 2.01659,0.0149 -0.03155,-5.41632 z m -29.5365237,0.3711 0.03985,5.41632 2.5155484,0.0141 v -5.41631 z" />
          <path
             style="fill:#6d7384;fill-opacity:1;stroke-width:0.425737"
             d="m 19.433598,229.07053 5.415454,-0.0619 -0.01606,-2.28659 -5.41592,0.0649 z"
             id="path49" />
          <path
             style="fill:#6d7384;fill-opacity:1;stroke-width:0.425737"
             d="m 18.708362,200.16565 5.415921,-0.0648 -0.0093,-2.27517 -5.415552,0.0619 z"
             id="path50" />
          <path
             style="fill:#6d7384;fill-opacity:1;stroke-width:0.425737"
             d="m 30.835955,226.29026 3.779357,-3.87909 -1.630773,-1.60291 -3.777558,3.88155 z"
             id="path51" />
          <path
             style="fill:#6d7384;fill-opacity:1;stroke-width:0.425737"
             d="m 10.161,206.09131 3.779357,-3.87909 -1.630773,-1.60291 -3.7775583,3.88155 z"
             id="path52" />
          <path
             style="fill:#6d7384;fill-opacity:1;stroke-width:0.264999"
             d="m 151.83722,205.23046 2.41156,2.3555 0.99901,-1.01381 -2.41308,-2.35437 z"
             id="path53"
             transform="matrix(1.6065622,0,0,1.6065622,-235.20018,-107.00481)" />
          <path
             sodipodi:type="star"
             style="display:inline;fill:#6d7384;fill-opacity:1;stroke-width:0.264999"
             id="path54"
             inkscape:flatsided="true"
             sodipodi:sides="8"
             sodipodi:cx="-63.624565"
             sodipodi:cy="199.22479"
             sodipodi:r1="16.879532"
             sodipodi:r2="15.594653"
             sodipodi:arg1="1.0471976"
             sodipodi:arg2="1.4398966"
             inkscape:rounded="0"
             inkscape:randomized="0"
             d="m -55.1848,213.8429 -12.80851,1.68627 -10.249359,-7.86461 -1.686272,-12.80851 7.864611,-10.24936 12.80851,-1.68627 10.249359,7.86461 1.686271,12.80851 z"
             inkscape:transform-center-y="-1.1823058e-06"
             transform="matrix(0.87041776,0.10448509,-0.10448509,0.87041776,97.769191,46.689422)" />
          <path
             style="display:inline;fill:#6d7384;fill-opacity:1;stroke-width:0.425737"
             d="m 28.932624,202.0337 3.874321,3.78426 1.604972,-1.62875 -3.876764,-3.78244 z"
             id="path55"
             transform="translate(2.0416727e-6)" />
        </g>
        <g
           id="g64"
           style="display:inline"
           transform="translate(65.147585,3.3620395e-5)">
          <path
             sodipodi:type="star"
             style="display:inline;fill:#858c99;fill-opacity:1;stroke-width:0.264999"
             id="path56"
             inkscape:flatsided="true"
             sodipodi:sides="8"
             sodipodi:cx="-63.624565"
             sodipodi:cy="199.22479"
             sodipodi:r1="16.879532"
             sodipodi:r2="15.594653"
             sodipodi:arg1="1.0471976"
             sodipodi:arg2="1.4398966"
             inkscape:rounded="0"
             inkscape:randomized="0"
             d="m -55.1848,213.8429 -12.80851,1.68627 -10.249359,-7.86461 -1.686272,-12.80851 7.864611,-10.24936 12.80851,-1.68627 10.249359,7.86461 1.686271,12.80851 z"
             inkscape:transform-center-y="-2.5424389e-06"
             transform="rotate(6.8450424,-139.95784,918.62923)" />
          <path
             id="path57"
             style="fill:#6d7384;fill-opacity:1;stroke-width:0.425737"
             d="m 35.181486,210.54931 v 5.41631 l 2.01659,0.0149 -0.03155,-5.41632 z m -29.5365237,0.3711 0.03985,5.41632 2.5155484,0.0141 v -5.41631 z" />
          <path
             style="fill:#6d7384;fill-opacity:1;stroke-width:0.425737"
             d="m 19.433598,229.07053 5.415454,-0.0619 -0.01606,-2.28659 -5.41592,0.0649 z"
             id="path58" />
          <path
             style="fill:#6d7384;fill-opacity:1;stroke-width:0.425737"
             d="m 18.708362,200.16565 5.415921,-0.0648 -0.0093,-2.27517 -5.415552,0.0619 z"
             id="path59" />
          <path
             style="fill:#6d7384;fill-opacity:1;stroke-width:0.425737"
             d="m 30.835955,226.29026 3.779357,-3.87909 -1.630773,-1.60291 -3.777558,3.88155 z"
             id="path60" />
          <path
             style="fill:#6d7384;fill-opacity:1;stroke-width:0.425737"
             d="m 10.161,206.09131 3.779357,-3.87909 -1.630773,-1.60291 -3.7775583,3.88155 z"
             id="path61" />
          <path
             style="fill:#6d7384;fill-opacity:1;stroke-width:0.264999"
             d="m 151.83722,205.23046 2.41156,2.3555 0.99901,-1.01381 -2.41308,-2.35437 z"
             id="path62"
             transform="matrix(1.6065622,0,0,1.6065622,-235.20018,-107.00481)" />
          <path
             sodipodi:type="star"
             style="display:inline;fill:#6d7384;fill-opacity:1;stroke-width:0.264999"
             id="path63"
             inkscape:flatsided="true"
             sodipodi:sides="8"
             sodipodi:cx="-63.624565"
             sodipodi:cy="199.22479"
             sodipodi:r1="16.879532"
             sodipodi:r2="15.594653"
             sodipodi:arg1="1.0471976"
             sodipodi:arg2="1.4398966"
             inkscape:rounded="0"
             inkscape:randomized="0"
             d="m -55.1848,213.8429 -12.80851,1.68627 -10.249359,-7.86461 -1.686272,-12.80851 7.864611,-10.24936 12.80851,-1.68627 10.249359,7.86461 1.686271,12.80851 z"
             inkscape:transform-center-y="-1.1823058e-06"
             transform="matrix(0.87041776,0.10448509,-0.10448509,0.87041776,97.769191,46.689422)" />
          <path
             style="display:inline;fill:#6d7384;fill-opacity:1;stroke-width:0.425737"
             d="m 28.932624,202.0337 3.874321,3.78426 1.604972,-1.62875 -3.876764,-3.78244 z"
             id="path64"
             transform="translate(2.0416727e-6)" />
        </g>
        <g
           id="g73"
           style="display:inline"
           transform="translate(-121.06553,-54.818235)">
          <path
             sodipodi:type="star"
             style="display:inline;fill:#858c99;fill-opacity:1;stroke-width:0.264999"
             id="path65"
             inkscape:flatsided="true"
             sodipodi:sides="8"
             sodipodi:cx="-63.624565"
             sodipodi:cy="199.22479"
             sodipodi:r1="16.879532"
             sodipodi:r2="15.594653"
             sodipodi:arg1="1.0471976"
             sodipodi:arg2="1.4398966"
             inkscape:rounded="0"
             inkscape:randomized="0"
             d="m -55.1848,213.8429 -12.80851,1.68627 -10.249359,-7.86461 -1.686272,-12.80851 7.864611,-10.24936 12.80851,-1.68627 10.249359,7.86461 1.686271,12.80851 z"
             inkscape:transform-center-y="-2.5424389e-06"
             transform="rotate(6.8450424,-139.95784,918.62923)" />
          <path
             id="path66"
             style="fill:#6d7384;fill-opacity:1;stroke-width:0.425737"
             d="m 35.181486,210.54931 v 5.41631 l 2.01659,0.0149 -0.03155,-5.41632 z m -29.5365237,0.3711 0.03985,5.41632 2.5155484,0.0141 v -5.41631 z" />
          <path
             style="fill:#6d7384;fill-opacity:1;stroke-width:0.425737"
             d="m 19.433598,229.07053 5.415454,-0.0619 -0.01606,-2.28659 -5.41592,0.0649 z"
             id="path67" />
          <path
             style="fill:#6d7384;fill-opacity:1;stroke-width:0.425737"
             d="m 18.708362,200.16565 5.415921,-0.0648 -0.0093,-2.27517 -5.415552,0.0619 z"
             id="path68" />
          <path
             style="fill:#6d7384;fill-opacity:1;stroke-width:0.425737"
             d="m 30.835955,226.29026 3.779357,-3.87909 -1.630773,-1.60291 -3.777558,3.88155 z"
             id="path69" />
          <path
             style="fill:#6d7384;fill-opacity:1;stroke-width:0.425737"
             d="m 10.161,206.09131 3.779357,-3.87909 -1.630773,-1.60291 -3.7775583,3.88155 z"
             id="path70" />
          <path
             style="fill:#6d7384;fill-opacity:1;stroke-width:0.264999"
             d="m 151.83722,205.23046 2.41156,2.3555 0.99901,-1.01381 -2.41308,-2.35437 z"
             id="path71"
             transform="matrix(1.6065622,0,0,1.6065622,-235.20018,-107.00481)" />
          <path
             sodipodi:type="star"
             style="display:inline;fill:#6d7384;fill-opacity:1;stroke-width:0.264999"
             id="path72"
             inkscape:flatsided="true"
             sodipodi:sides="8"
             sodipodi:cx="-63.624565"
             sodipodi:cy="199.22479"
             sodipodi:r1="16.879532"
             sodipodi:r2="15.594653"
             sodipodi:arg1="1.0471976"
             sodipodi:arg2="1.4398966"
             inkscape:rounded="0"
             inkscape:randomized="0"
             d="m -55.1848,213.8429 -12.80851,1.68627 -10.249359,-7.86461 -1.686272,-12.80851 7.864611,-10.24936 12.80851,-1.68627 10.249359,7.86461 1.686271,12.80851 z"
             inkscape:transform-center-y="-1.1823058e-06"
             transform="matrix(0.87041776,0.10448509,-0.10448509,0.87041776,97.769191,46.689422)" />
          <path
             style="display:inline;fill:#6d7384;fill-opacity:1;stroke-width:0.425737"
             d="m 28.932624,202.0337 3.874321,3.78426 1.604972,-1.62875 -3.876764,-3.78244 z"
             id="path73"
             transform="translate(2.0416727e-6)" />
        </g>
        <g
           id="g82"
           style="display:inline"
           transform="translate(-166.71881,-99.607022)">
          <path
             sodipodi:type="star"
             style="display:inline;fill:#858c99;fill-opacity:1;stroke-width:0.264999"
             id="path74"
             inkscape:flatsided="true"
             sodipodi:sides="8"
             sodipodi:cx="-63.624565"
             sodipodi:cy="199.22479"
             sodipodi:r1="16.879532"
             sodipodi:r2="15.594653"
             sodipodi:arg1="1.0471976"
             sodipodi:arg2="1.4398966"
             inkscape:rounded="0"
             inkscape:randomized="0"
             d="m -55.1848,213.8429 -12.80851,1.68627 -10.249359,-7.86461 -1.686272,-12.80851 7.864611,-10.24936 12.80851,-1.68627 10.249359,7.86461 1.686271,12.80851 z"
             inkscape:transform-center-y="-2.5424389e-06"
             transform="rotate(6.8450424,-139.95784,918.62923)" />
          <path
             id="path75"
             style="fill:#6d7384;fill-opacity:1;stroke-width:0.425737"
             d="m 35.181486,210.54931 v 5.41631 l 2.01659,0.0149 -0.03155,-5.41632 z m -29.5365237,0.3711 0.03985,5.41632 2.5155484,0.0141 v -5.41631 z" />
          <path
             style="fill:#6d7384;fill-opacity:1;stroke-width:0.425737"
             d="m 19.433598,229.07053 5.415454,-0.0619 -0.01606,-2.28659 -5.41592,0.0649 z"
             id="path76" />
          <path
             style="fill:#6d7384;fill-opacity:1;stroke-width:0.425737"
             d="m 18.708362,200.16565 5.415921,-0.0648 -0.0093,-2.27517 -5.415552,0.0619 z"
             id="path77" />
          <path
             style="fill:#6d7384;fill-opacity:1;stroke-width:0.425737"
             d="m 30.835955,226.29026 3.779357,-3.87909 -1.630773,-1.60291 -3.777558,3.88155 z"
             id="path78" />
          <path
             style="fill:#6d7384;fill-opacity:1;stroke-width:0.425737"
             d="m 10.161,206.09131 3.779357,-3.87909 -1.630773,-1.60291 -3.7775583,3.88155 z"
             id="path79" />
          <path
             style="fill:#6d7384;fill-opacity:1;stroke-width:0.264999"
             d="m 151.83722,205.23046 2.41156,2.3555 0.99901,-1.01381 -2.41308,-2.35437 z"
             id="path80"
             transform="matrix(1.6065622,0,0,1.6065622,-235.20018,-107.00481)" />
          <path
             sodipodi:type="star"
             style="display:inline;fill:#6d7384;fill-opacity:1;stroke-width:0.264999"
             id="path81"
             inkscape:flatsided="true"
             sodipodi:sides="8"
             sodipodi:cx="-63.624565"
             sodipodi:cy="199.22479"
             sodipodi:r1="16.879532"
             sodipodi:r2="15.594653"
             sodipodi:arg1="1.0471976"
             sodipodi:arg2="1.4398966"
             inkscape:rounded="0"
             inkscape:randomized="0"
             d="m -55.1848,213.8429 -12.80851,1.68627 -10.249359,-7.86461 -1.686272,-12.80851 7.864611,-10.24936 12.80851,-1.68627 10.249359,7.86461 1.686271,12.80851 z"
             inkscape:transform-center-y="-1.1823058e-06"
             transform="matrix(0.87041776,0.10448509,-0.10448509,0.87041776,97.769191,46.689422)" />
          <path
             style="display:inline;fill:#6d7384;fill-opacity:1;stroke-width:0.425737"
             d="m 28.932624,202.0337 3.874321,3.78426 1.604972,-1.62875 -3.876764,-3.78244 z"
             id="path82"
             transform="translate(2.0416727e-6)" />
        </g>
        <g
           id="g91"
           style="display:inline"
           transform="translate(-231.86639,-99.435261)">
          <path
             sodipodi:type="star"
             style="display:inline;fill:#858c99;fill-opacity:1;stroke-width:0.264999"
             id="path83"
             inkscape:flatsided="true"
             sodipodi:sides="8"
             sodipodi:cx="-63.624565"
             sodipodi:cy="199.22479"
             sodipodi:r1="16.879532"
             sodipodi:r2="15.594653"
             sodipodi:arg1="1.0471976"
             sodipodi:arg2="1.4398966"
             inkscape:rounded="0"
             inkscape:randomized="0"
             d="m -55.1848,213.8429 -12.80851,1.68627 -10.249359,-7.86461 -1.686272,-12.80851 7.864611,-10.24936 12.80851,-1.68627 10.249359,7.86461 1.686271,12.80851 z"
             inkscape:transform-center-y="-2.5424389e-06"
             transform="rotate(6.8450424,-139.95784,918.62923)" />
          <path
             id="path84"
             style="fill:#6d7384;fill-opacity:1;stroke-width:0.425737"
             d="m 35.181486,210.54931 v 5.41631 l 2.01659,0.0149 -0.03155,-5.41632 z m -29.5365237,0.3711 0.03985,5.41632 2.5155484,0.0141 v -5.41631 z" />
          <path
             style="fill:#6d7384;fill-opacity:1;stroke-width:0.425737"
             d="m 19.433598,229.07053 5.415454,-0.0619 -0.01606,-2.28659 -5.41592,0.0649 z"
             id="path85" />
          <path
             style="fill:#6d7384;fill-opacity:1;stroke-width:0.425737"
             d="m 18.708362,200.16565 5.415921,-0.0648 -0.0093,-2.27517 -5.415552,0.0619 z"
             id="path86" />
          <path
             style="fill:#6d7384;fill-opacity:1;stroke-width:0.425737"
             d="m 30.835955,226.29026 3.779357,-3.87909 -1.630773,-1.60291 -3.777558,3.88155 z"
             id="path87" />
          <path
             style="fill:#6d7384;fill-opacity:1;stroke-width:0.425737"
             d="m 10.161,206.09131 3.779357,-3.87909 -1.630773,-1.60291 -3.7775583,3.88155 z"
             id="path88" />
          <path
             style="fill:#6d7384;fill-opacity:1;stroke-width:0.264999"
             d="m 151.83722,205.23046 2.41156,2.3555 0.99901,-1.01381 -2.41308,-2.35437 z"
             id="path89"
             transform="matrix(1.6065622,0,0,1.6065622,-235.20018,-107.00481)" />
          <path
             sodipodi:type="star"
             style="display:inline;fill:#6d7384;fill-opacity:1;stroke-width:0.264999"
             id="path90"
             inkscape:flatsided="true"
             sodipodi:sides="8"
             sodipodi:cx="-63.624565"
             sodipodi:cy="199.22479"
             sodipodi:r1="16.879532"
             sodipodi:r2="15.594653"
             sodipodi:arg1="1.0471976"
             sodipodi:arg2="1.4398966"
             inkscape:rounded="0"
             inkscape:randomized="0"
             d="m -55.1848,213.8429 -12.80851,1.68627 -10.249359,-7.86461 -1.686272,-12.80851 7.864611,-10.24936 12.80851,-1.68627 10.249359,7.86461 1.686271,12.80851 z"
             inkscape:transform-center-y="-1.1823058e-06"
             transform="matrix(0.87041776,0.10448509,-0.10448509,0.87041776,97.769191,46.689422)" />
          <path
             style="display:inline;fill:#6d7384;fill-opacity:1;stroke-width:0.425737"
             d="m 28.932624,202.0337 3.874321,3.78426 1.604972,-1.62875 -3.876764,-3.78244 z"
             id="path91"
             transform="translate(2.0416727e-6)" />
        </g>
      </g>
    </g>
    <path
       style="fill:#6d7384;fill-opacity:1;stroke-width:0.264999"
       d="m -9.3470181,7.8119953 c 1.4711063,2.0634971 3.2709929,3.9568207 5.4517755,5.2607937 2.5982683,1.553604 11.629951,1.152443 14.4161786,-0.101683 1.01255,-0.455765 3.2223,-3.8635178 5.002024,-4.9316275 2.221347,-1.333152 7.306187,-2.7892216 7.306187,-6.0188539 0,-2.7349838 -3.289086,-4.2698004 -4.91794,-5.8167916 C 15.117751,-6.4492306 10.87109,-9.8546141 6.7554043,-9.2590233 0.72891064,-8.3869148 -1.8208526,-1.9803017 -5.2444985,1.6666894 -6.3406437,2.8343426 -7.9689118,3.6263871 -8.7004183,5.1063138 -9.121229,5.9576652 -9.0094709,6.9253626 -9.3470181,7.8119953 Z"
       id="path92" />
    <path
       style="fill:#6d7384;fill-opacity:1;stroke-width:0.264999"
       d="m -0.607491,26.566651 c 0.91257479,0.025 1.3989983,-0.212706 1.9952038,-0.910585 1.1874902,-1.389997 4.6582041,-4.327734 6.6882674,-2.503619 0.7751183,0.696483 1.2135233,1.688822 1.9671758,2.453429 0.716438,0.726852 1.878168,0.938555 2.501012,1.744907 2.827905,3.66109 -0.191025,7.590359 -3.7935599,8.97809 -4.3319114,1.668696 -8.97857699,-0.319995 -10.7347311,-4.425817 -0.3453944,-0.807522 -0.8804993,-1.979581 -0.6746278,-2.908398 0.1694394,-0.764447 1.5891744,-1.804096 2.0512598,-2.428007 z"
       id="path93" />
    <path
       style="fill:#6d7384;fill-opacity:1;stroke-width:0.264999"
       d="m 24.346571,11.29138 c -3.865437,-0.695808 -10.211691,5.191365 -8.879667,9.382869 0.261903,0.824137 4.41434,4.222531 5.310983,5.2093 0.991457,1.091113 1.09948,3.370311 2.585096,3.869823 3.443118,1.157684 4.940758,-1.646719 6.379308,-3.945434 1.156875,-1.848615 2.893714,-2.736478 2.135994,-5.285562 -0.543919,-1.829833 -2.445744,-2.597577 -3.569334,-3.970853 -1.420006,-1.735562 -2.376423,-3.674185 -3.96238,-5.260143 z"
       id="path94" />
    <path
       style="fill:#6d7384;fill-opacity:1;stroke-width:0.264999"
       d="M 17.715011,37.21404 C 9.2090705,36.56 11.833587,41.288581 7.3733244,44.801157 c -3.0476915,2.400141 -7.18708727,4.073181 -7.81199549,8.396674 -0.19283394,1.334143 0.35019361,2.636615 0.84279601,3.84375 2.18250938,5.348295 8.76184248,4.432932 13.46061908,4.097303 1.824863,-0.130347 3.904898,0.322749 5.535859,-0.73329 5.171027,-3.348215 3.280112,-4.792424 4.721092,-9.332677 0.775984,-2.44498 3.280351,-3.365336 2.782596,-6.348021 -1.109513,-6.648508 -7.812315,-4.101737 -9.18928,-7.510856 z"
       id="path95" />
    <path
       style="fill:#6d7384;fill-opacity:1;stroke-width:0.264999"
       d="m 116.49227,-2.3152447 c -3.17669,0.047098 -7.83519,0.9734186 -9.55495,4.0718845 -0.69866,1.2587603 -0.70194,2.9301306 -1.23649,4.2739469 -0.3484,0.8758396 -1.13623,1.4446583 -1.51743,2.3269773 -0.97566,2.258249 2.31824,4.456673 3.99041,5.13369 1.16693,0.472455 2.51469,0.565584 3.56934,1.011616 3.04444,1.287557 6.76271,3.236147 10.08813,1.366203 1.22521,-0.688958 2.22777,-1.816988 3.45657,-2.52904 1.34832,-0.781311 2.91885,-1.188306 4.01843,-2.352398 4.15001,-4.3934614 -7.17355,-16.7254896 -12.81401,-13.3028797 z"
       id="path96" />
    <path
       style="fill:#6d7384;fill-opacity:1;stroke-width:0.264999"
       d="m 192.73043,-4.4903493 c -8.55389,8.0436756 -0.46047,9.5711274 4.8332,13.6822356 1.30795,1.0157557 1.99534,2.4260787 3.17564,3.5406557 3.4796,3.285839 8.91705,4.488643 13.65747,3.74337 10.0386,-1.578234 13.57422,-15.0936856 4.18726,-20.1821286 -3.77121,-2.0442806 -12.82111,-3.0936562 -17.25418,-2.2761358 -2.50967,0.4628174 -6.10292,2.6859653 -8.59939,1.4920031 z"
       id="path97" />
    <path
       style="fill:#6d7384;fill-opacity:1;stroke-width:0.264999"
       d="m 173.2842,12.404028 c 2.62738,0.115456 7.23622,-2.079033 6.7163,-5.3618254 -0.39511,-2.4946838 -1.04021,-3.9279515 -0.0841,-6.42363075 1.75225,-4.57372195 -5.79004,-6.32188535 -8.82426,-6.01885385 -1.82236,0.1820016 -8.91363,2.8312144 -10.28498,4.374978 -0.79223,0.89183539 -0.78674,1.73112665 -0.78674,2.882975 0,4.3937528 1.32627,3.9102644 3.90567,6.7782178 2.81738,3.1325562 4.61218,5.5091272 9.3581,3.7681392 z"
       id="path98" />
    <path
       style="fill:#6d7384;fill-opacity:1;stroke-width:0.264999"
       d="m 187.19457,11.872799 c -3.57647,2.114324 -7.08901,6.870224 -4.72109,11.127775 0.73486,1.32128 2.36307,1.545738 3.34381,2.605302 0.76744,0.829116 0.79587,1.74437 1.34925,2.630071 1.73019,2.769195 5.80933,2.547292 8.54268,1.795748 1.71017,-0.470212 4.55696,-2.339189 3.73751,-4.552271 -0.46277,-1.249788 -1.51985,-2.161378 -1.71428,-3.566076 -0.53333,-3.853242 2.01325,-2.988844 -1.93914,-6.3226 -2.62917,-2.217647 -5.59247,-2.503415 -8.59874,-3.717949 z"
       id="path99" />
    <path
       style="fill:#6d7384;fill-opacity:1;stroke-width:0.264999"
       d="m 150.80312,11.771768 c 1.19265,-1.9543631 3.71941,-3.0571128 4.3274,-5.3618254 0.16681,-0.6323269 0.3328,-1.5042099 0.16882,-2.1496837 -0.3533,-1.3906818 -1.3371,-2.5743484 -1.79901,-3.9200118 -0.33095,-0.96415822 0.46466,-1.6425443 -0.2529,-2.503619 -1.56845,-1.8821337 -4.86265,-3.7602917 -7.33422,-3.9200116 -4.33295,-0.2800086 -9.74747,7.2417446 -8.26175,11.2542271 1.10247,2.9774226 4.47936,3.2959402 6.94118,4.5268509 1.25475,0.6273785 5.23819,5.3545085 6.21048,2.0740735 z"
       id="path100" />
    <path
       style="fill:#466826;fill-opacity:1;stroke-width:0.264999"
       d="m 214.31266,35.544741 c -2.91561,0.269976 -5.78151,-0.867375 -8.7115,-0.935355 -2.27321,-0.05274 -3.9408,0.929162 -5.25493,2.781946 -0.71712,1.011071 -2.66142,9.009782 -2.13599,10.065316 1.05696,2.123377 3.2239,3.048013 5.11478,4.324789 3.64522,2.461355 7.24457,6.24853 11.8024,3.515236 1.31298,-0.787376 2.88175,-1.977861 3.73751,-3.262331 1.94692,-2.922265 1.39958,-6.027708 0.95556,-9.332026 -0.22875,-1.702327 -0.68076,-4.135107 -1.82638,-5.488279 -1.17808,-1.391494 -3.34088,-0.08129 -3.68145,-1.669296 z"
       id="path101" />
    <path
       id="path102"
       style="fill:#3c5a22;fill-opacity:1;stroke-width:0.264999"
       d="M 204.01132 34.656283 C 202.31865 34.91379 201.00265 35.845951 199.92475 37.365678 C 199.20763 38.376748 197.26301 46.37568 197.78844 47.431213 C 198.8454 49.554588 201.0125 50.479239 202.90338 51.756014 C 206.54859 54.217367 210.14793 58.004336 214.70576 55.271045 C 215.38481 54.863829 216.13074 54.347875 216.81261 53.767778 C 216.41981 52.218439 215.93931 50.934276 215.43646 50.618099 C 214.48532 50.020055 212.81011 50.233207 212.00825 49.378898 C 211.00748 48.312686 210.81942 46.39227 209.64767 45.534688 C 208.18083 44.461126 206.33748 44.930078 205.01074 43.511039 C 204.38596 42.842806 202.20781 40.207513 202.53802 39.312846 C 203.01182 38.029192 205.51489 37.080358 204.70172 35.469153 C 204.54176 35.152211 204.30631 34.882506 204.01132 34.656283 z " />
    <path
       id="path103"
       style="fill:#527d30;fill-opacity:1;stroke-width:0.264999"
       d="M 210.76853 35.338928 C 210.81797 37.558291 210.57962 39.464743 212.34569 41.487907 C 214.71249 44.199235 217.03381 43.344985 219.99329 43.988529 C 219.93749 43.563057 219.87877 43.134547 219.82069 42.702303 C 219.59194 40.999978 219.13955 38.567437 217.99393 37.214266 C 216.81585 35.822773 214.65307 37.132605 214.3125 35.5446 C 213.12544 35.654518 211.94679 35.528427 210.76853 35.338928 z " />
  </g>
</svg>
