<?xml version="1.0" encoding="UTF-8" standalone="no"?>
<!-- Created with Inkscape (http://www.inkscape.org/) -->

<svg
   width="126.70153mm"
   height="24.88158mm"
   viewBox="0 0 126.70153 24.88158"
   version="1.1"
   id="svg1"
   xml:space="preserve"
   inkscape:version="1.3.2 (091e20e, 2023-11-25)"
   sodipodi:docname="signature4.svg"
   xmlns:inkscape="http://www.inkscape.org/namespaces/inkscape"
   xmlns:sodipodi="http://sodipodi.sourceforge.net/DTD/sodipodi-0.dtd"
   xmlns="http://www.w3.org/2000/svg"
   xmlns:svg="http://www.w3.org/2000/svg"><sodipodi:namedview
     id="namedview1"
     pagecolor="#ffffff"
     bordercolor="#000000"
     borderopacity="0.25"
     inkscape:showpageshadow="2"
     inkscape:pageopacity="0.0"
     inkscape:pagecheckerboard="0"
     inkscape:deskcolor="#d1d1d1"
     inkscape:document-units="mm"
     inkscape:zoom="1.0804665"
     inkscape:cx="253.59417"
     inkscape:cy="40.260388"
     inkscape:window-width="1680"
     inkscape:window-height="979"
     inkscape:window-x="0"
     inkscape:window-y="0"
     inkscape:window-maximized="1"
     inkscape:current-layer="layer1" /><defs
     id="defs1" /><g
     inkscape:label="Layer 1"
     inkscape:groupmode="layer"
     id="layer1"
     transform="translate(-40.617219,-123.38432)"><path
       id="rect1"
       style="fill:#6186ff;fill-opacity:1;stroke-width:0.264999"
       d="m 82.513222,138.57119 -2.103762,1.59506 -1.740602,0.67866 -0.431994,-0.58584 0.944601,-0.84468 1.618367,-2.22929 -0.479548,-1.38869 -2.21108,0.13351 -1.819213,-0.39416 -0.494899,-0.84615 -1.926249,1.97681 -2.818651,2.00166 -1.480284,-0.69598 -0.445885,-1.15583 -1.229943,0.84338 -1.827865,0.25313 -1.631451,-0.94715 -0.168245,-2.11539 0.157775,-2.41018 0.713535,-1.41321 0.68935,0.67981 -0.422343,2.2654 -0.08131,2.10248 1.409514,0.94306 1.907599,-0.9393 0.720245,-2.67329 0.825473,-1.3279 0.73053,0.97885 -0.04486,2.03646 0.162504,2.0698 1.074189,-0.53485 1.996669,-1.86014 2.247009,-2.75189 2.272828,-1.69165 1.898457,-0.32667 0.224601,1.01774 -1.71087,1.4735 -1.859239,1.49311 1.424057,0.77851 2.260082,0.0712 1.283205,1.40602 -0.477097,1.60455 1.591066,-1.32822 2.345711,-2.17945 1.594508,-3.13623 0.48067,-2.82657 -5.253188,-1.36924 -2.770924,-0.19708 -4.555412,-0.61623 -4.025172,-0.38352 -3.421864,0.44593 -3.063588,1.42213 -2.91755,1.80267 -3.617647,2.32986 0.780659,3.31055 0.534776,3.35675 0.720739,2.57787 -1.195296,-0.29468 -0.552989,-2.32772 -0.712293,-4.05129 -0.438209,-2.11311 -3.184873,1.49509 -1.6706,1.22681 -0.634941,1.45884 -1.548487,2.88594 -1.723913,1.39676 -0.686367,-0.70629 2.088593,-2.13078 1.303328,-2.67492 -4.226695,1.30425 -2.450668,2.01763 -1.773777,2.59903 -0.575506,2.50395 0.35793,2.58624 1.494491,1.51828 -0.628804,0.521 -2.030794,-0.83269 -0.684117,-2.02501 0.129456,-2.71375 1.321686,-2.96756 2.345137,-2.58963 3.236408,-2.07347 4.320501,-1.34291 2.06372,-4.69835 1.575861,-4.23514 0.862726,-0.14677 0.639934,3.07986 0.407087,2.78106 2.296511,-1.2098 3.766517,-2.01018 2.506404,-1.6685 2.977976,-0.94784 4.444384,0.35573 4.454609,0.54555 4.968406,0.38252 2.640083,0.15218 2.262334,0.88978 0.410697,-1.61993 0.651169,-1.96133 1.111569,-0.0254 0.05396,1.59605 -0.276259,2.31964 2.757196,0.0429 3.271655,0.56022 4.094011,0.15732 3.938443,-0.36881 4.91801,-0.45866 5.4823,0.8476 4.60412,0.60718 0.16282,-1.26923 0.92798,0.10385 -0.01,1.25931 4.44534,-0.71859 5.26579,-1.22082 5.43553,-1.68212 7.1693,-0.65731 4.33123,1.78097 4.42317,2.75903 3.61101,2.50304 3.31828,1.70457 0.54523,-2.03922 0.58717,-1.6776 0.624,0.23595 0.0761,1.79546 -0.0855,2.3557 2.3179,0.24258 3.6406,0.8369 1.40002,1.63383 0.27895,1.87619 -2.07306,2.56278 -2.30195,1.19354 -3.05021,-0.96737 -1.30078,-1.06729 -1.2298,1.0574 -1.54997,1.30856 -1.80321,0.28485 -1.55548,-1.51592 -0.407,-1.79188 -0.62672,1.56388 -0.78305,1.24687 -0.7777,-0.0666 0.54615,-1.77885 -0.0506,-2.56709 -1.1456,-1.41098 -1.33482,1.88059 -2.03605,1.7978 -1.91743,1.19427 -1.0427,-0.60346 -2.08483,0.45794 -1.99063,-1.11714 -0.65231,-1.72543 -1.02303,3.0485 -1.56921,1.07249 -1.54501,-0.68589 -0.86615,-2.05853 -0.0196,-3.54517 -0.69534,1.87999 -1.96844,1.70061 -2.61879,0.48064 -0.6131,-1.16063 -1.89703,1.14517 -2.22529,-0.30126 -1.01897,-1.41242 0.19412,-2.56743 1.36486,-1.16541 2.2889,-0.0239 0.47359,0.70445 -0.92506,0.48739 -1.57651,-0.34287 -0.94544,1.86185 0.83038,1.71691 2.23815,-0.33711 0.88605,-2.28599 0.12508,-1.09948 0.94593,-0.1545 0.12157,1.97432 0.63666,2.11602 1.54635,-0.86204 1.2143,-2.2701 1.12926,-4.36644 0.99133,-3.61489 1.08947,-0.29326 0.20494,1.21279 -0.61662,4.69245 0.17498,4.6715 0.58858,2.71518 1.02382,-0.79723 1.09326,-2.83805 0.79312,-3.87694 0.10091,-3.40486 1.55042,0.33725 -0.38522,1.87886 -0.38086,2.92282 0.30178,2.9342 1.55986,1.72507 1.61383,-0.36945 -0.71433,-2.90749 1.16398,-3.1164 2.46632,-1.03003 1.3255,1.0313 0.43843,2.49278 -0.84028,2.25267 1.28741,-1.97404 2.00943,-1.22643 1.48183,0.63093 0.56992,2.03503 1.20871,-0.30462 0.71837,0.99628 0.33514,2.38188 1.58871,0.39263 2.12867,-1.64271 0.36917,-1.93605 -0.16462,-2.90386 -2.66092,-1.39697 -2.59835,-1.79777 -3.52591,-2.71899 -3.82296,-2.08746 -3.50847,-1.35845 -5.96175,0.58128 -5.66204,1.40878 -6.55739,1.63944 -3.43609,0.48649 -0.12908,5.01056 -0.38775,4.6311 -1.26185,-0.0724 0.47099,-4.91385 -0.15711,-4.63746 -7.66894,-1.17628 -4.27874,0.24126 -8.018423,0.38947 -5.268149,-0.77971 -3.595799,0.002 -0.712565,2.4278 -1.112489,5.5833 0.321456,3.15571 2.300451,-0.91354 1.656127,-2.0308 0.974244,-3.24707 0.782217,0.55814 -0.101216,2.16955 -0.131016,2.1455 2.742167,-1.74919 2.122883,-2.22963 1.361826,-0.74126 0.573786,1.03643 0.12026,3.20967 1.11514,-1.74496 1.71255,0.16368 0.60694,1.02172 0.47399,1.29123 1.15851,0.94519 -1.79702,1.05329 -0.99805,-1.00411 -0.34984,-2.13712 -1.25356,2.26946 -1.22199,1.36451 -0.935276,-0.26464 0.01834,-2.25448 0.0051,-3.05618 -1.883068,2.26434 -1.498838,1.23499 -2.485248,0.73729 -1.169622,-1.2515 -1.552434,1.64768 -1.799215,0.71695 -1.622801,-0.58821 -0.495644,-2.40396 -0.214053,-2.82814 z"
       sodipodi:nodetypes="ccccccccccccccccccccccccccccccccccccccccccccccccccccccccccccccccccccccccccccccccccccccccccccccccccccccccccccccccccccccccccccccccccccccccccccccccccccccccccccccccccccccccccccccccccccccccccccccccccccccccccccccccccccccccccccccccccccccccccccccccccccccccccccccccccccccccccccc" /></g></svg>
